HIERARCHY
ROOT hip
{
  OFFSET 0 0 0
  CHANNELS 6 Xposition Yposition Zposition Zrotation Yrotation Xrotation
  JOINT abdomen
  {
    OFFSET 0 20.6881 -0.73152
    CHANNELS 3 Zrotation Xrotation Yrotation
    JOINT chest
    {
      OFFSET 0 11.7043 -0.48768
      CHANNELS 3 Zrotation Xrotation Yrotation
      JOINT neck
      {
        OFFSET 0 22.1894 -2.19456
        CHANNELS 3 Zrotation Xrotation Yrotation
        JOINT head
        {
          OFFSET -0.24384 7.07133 1.2192
          CHANNELS 3 Zrotation Xrotation Yrotation
          JOINT leftEye
          {
            OFFSET 4.14528 8.04674 8.04672
            CHANNELS 3 Zrotation Xrotation Yrotation
            End Site
            {
              OFFSET 1 0 0
            }
          }
          JOINT rightEye
          {
            OFFSET -3.6576 8.04674 8.04672
            CHANNELS 3 Zrotation Xrotation Yrotation
            End Site
            {
              OFFSET 1 0 0
            }
          }
        }
      }
      JOINT rCollar
      {
        OFFSET -2.68224 19.2634 -4.8768
        CHANNELS 3 Zrotation Xrotation Yrotation
        JOINT rShldr
        {
          OFFSET -8.77824 -1.95073 1.46304
          CHANNELS 3 Zrotation Xrotation Yrotation
          JOINT rForeArm
          {
            OFFSET -28.1742 -1.7115 0.48768
            CHANNELS 3 Zrotation Xrotation Yrotation
            JOINT rHand
            {
              OFFSET -22.5879 0.773209 7.07136
              CHANNELS 3 Zrotation Xrotation Yrotation
              JOINT rThumb1
              {
                OFFSET -1.2192 -0.487915 3.41376
                CHANNELS 3 Zrotation Xrotation Yrotation
                JOINT rThumb2
                {
                  OFFSET -3.37035 -0.52449 3.41376
                  CHANNELS 3 Zrotation Xrotation Yrotation
                  End Site
                  {
                    OFFSET -1.78271 -1.18214 1.43049
                  }
                }
              }
              JOINT rIndex1
              {
                OFFSET -7.75947 0.938293 5.60832
                CHANNELS 3 Zrotation Xrotation Yrotation
                JOINT rIndex2
                {
                  OFFSET -2.54057 -0.884171 1.56538
                  CHANNELS 3 Zrotation Xrotation Yrotation
                  End Site
                  {
                    OFFSET -1.62519 -0.234802 1.16502
                  }
                }
              }
              JOINT rMid1
              {
                OFFSET -8.24714 1.18213 3.41376
                CHANNELS 3 Zrotation Xrotation Yrotation
                JOINT rMid2
                {
                  OFFSET -3.10165 -0.590103 1.0647
                  CHANNELS 3 Zrotation Xrotation Yrotation
                  End Site
                  {
                    OFFSET -2.48547 -0.328903 0.83742
                  }
                }
              }
              JOINT rRing1
              {
                OFFSET -8.82822 0.546677 1.51678
                CHANNELS 3 Zrotation Xrotation Yrotation
                JOINT rRing2
                {
                  OFFSET -2.60934 -0.819778 -0.0198488
                  CHANNELS 3 Zrotation Xrotation Yrotation
                  End Site
                  {
                    OFFSET -2.33842 -0.294052 0.168128
                  }
                }
              }
              JOINT rPinky1
              {
                OFFSET -8.27202 -0.0477905 -0.4584
                CHANNELS 3 Zrotation Xrotation Yrotation
                JOINT rPinky2
                {
                  OFFSET -1.82734 -0.647385 -0.700984
                  CHANNELS 3 Zrotation Xrotation Yrotation
                  End Site
                  {
                    OFFSET -1.69225 -0.51767 -0.607171
                  }
                }
              }
            }
          }
        }
      }
      JOINT lCollar
      {
        OFFSET 2.68224 19.2634 -4.8768
        CHANNELS 3 Zrotation Xrotation Yrotation
        JOINT lShldr
        {
          OFFSET 8.77824 -1.95073 1.46304
          CHANNELS 3 Zrotation Xrotation Yrotation
          JOINT lForeArm
          {
            OFFSET 28.1742 -1.7115 0.48768
            CHANNELS 3 Zrotation Xrotation Yrotation
            JOINT lHand
            {
              OFFSET 22.5879 0.773209 7.07136
              CHANNELS 3 Zrotation Xrotation Yrotation
              JOINT lThumb1
              {
                OFFSET 1.2192 -0.487915 3.41376
                CHANNELS 3 Zrotation Xrotation Yrotation
                JOINT lThumb2
                {
                  OFFSET 3.37035 -0.52449 3.41376
                  CHANNELS 3 Zrotation Xrotation Yrotation
                  End Site
                  {
                    OFFSET 1.78271 -1.18214 1.43049
                  }
                }
              }
              JOINT lIndex1
              {
                OFFSET 7.75947 0.938293 5.60832
                CHANNELS 3 Zrotation Xrotation Yrotation
                JOINT lIndex2
                {
                  OFFSET 2.54057 -0.884171 1.56538
                  CHANNELS 3 Zrotation Xrotation Yrotation
                  End Site
                  {
                    OFFSET 1.62519 -0.234802 1.16502
                  }
                }
              }
              JOINT lMid1
              {
                OFFSET 8.24714 1.18213 3.41376
                CHANNELS 3 Zrotation Xrotation Yrotation
                JOINT lMid2
                {
                  OFFSET 3.10165 -0.590103 1.0647
                  CHANNELS 3 Zrotation Xrotation Yrotation
                  End Site
                  {
                    OFFSET 2.48547 -0.328903 0.83742
                  }
                }
              }
              JOINT lRing1
              {
                OFFSET 8.82822 0.546677 1.51678
                CHANNELS 3 Zrotation Xrotation Yrotation
                JOINT lRing2
                {
                  OFFSET 2.60934 -0.819778 -0.0198488
                  CHANNELS 3 Zrotation Xrotation Yrotation
                  End Site
                  {
                    OFFSET 2.33842 -0.294052 0.168128
                  }
                }
              }
              JOINT lPinky1
              {
                OFFSET 8.27202 -0.0477905 -0.4584
                CHANNELS 3 Zrotation Xrotation Yrotation
                JOINT lPinky2
                {
                  OFFSET 1.82734 -0.647385 -0.700984
                  CHANNELS 3 Zrotation Xrotation Yrotation
                  End Site
                  {
                    OFFSET 1.69225 -0.51767 -0.607171
                  }
                }
              }
            }
          }
        }
      }
    }
  }
  JOINT rButtock
  {
    OFFSET -8.77824 4.35084 1.2192
    CHANNELS 3 Zrotation Xrotation Yrotation
    JOINT rThigh
    {
      OFFSET 0 -1.70687 -2.19456
      CHANNELS 3 Zrotation Xrotation Yrotation
      JOINT rShin
      {
        OFFSET 0 -36.8199 0.73152
        CHANNELS 3 Zrotation Xrotation Yrotation
        JOINT rFoot
        {
          OFFSET 0.73152 -45.1104 -5.12064
          CHANNELS 3 Zrotation Xrotation Yrotation
          End Site
          {
            OFFSET -1.1221 -3.69964 12.103
          }
        }
      }
    }
  }
  JOINT lButtock
  {
    OFFSET 8.77824 4.35084 1.2192
    CHANNELS 3 Zrotation Xrotation Yrotation
    JOINT lThigh
    {
      OFFSET 0 -1.70687 -2.19456
      CHANNELS 3 Zrotation Xrotation Yrotation
      JOINT lShin
      {
        OFFSET 0 -36.8199 0.73152
        CHANNELS 3 Zrotation Xrotation Yrotation
        JOINT lFoot
        {
          OFFSET -0.73152 -45.1104 -5.12064
          CHANNELS 3 Zrotation Xrotation Yrotation
          End Site
          {
            OFFSET 1.1221 -3.69964 12.103
          }
        }
      }
    }
  }
}
MOTION
Frames:	4
Frame Time:	0.00833333
54.7194 84.9283 2.89785 1.0411 -7.5407 8.2518 -3.30435 -7.24943 3.18001 2.39292 1.7602 0.703542 -13.294 -4.53243 -4.85637 20.133 -2.90774 -4.43626 -0.0 0.0 0.0 -0.0 0.0 0.0 1.19016e-13 2.60114e-14 -1.42618e-13 81.6362 36.6576 -13.3845 -17.376 -10.0307 32.6361 -0.541234 -20.4414 -3.00255 -6.10454e-10 7.43884e-10 -2.00744e-10 -1.05153e-09 1.2841e-09 -3.55586e-10 -6.10449e-10 7.43885e-10 -2.00751e-10 7.73091 5.47488 0.417314 -6.10456e-10 7.43883e-10 -2.00742e-10 2.90554 0.965183 0.102902 -6.10449e-10 7.43883e-10 -2.00737e-10 10.2786 0.731801 0.0259123 -6.10459e-10 7.43886e-10 -2.00729e-10 2.22167 -0.733487 -0.20892 1.18856e-13 2.6013e-14 -1.42792e-13 -79.0401 37.819 1.91385 10.7027 -4.5798 -19.1257 0.00305195 1.83424 -0.257826 -1.26003e-09 -6.85999e-10 -1.66424e-10 -2.17752e-09 -1.18355e-09 -2.83298e-10 -1.26005e-09 -6.86009e-10 -1.66422e-10 -7.73091 5.47488 -0.417314 -1.26003e-09 -6.86013e-10 -1.66427e-10 -2.90554 0.965183 -0.102902 -1.26004e-09 -6.86016e-10 -1.66424e-10 -10.2786 0.731801 -0.0259123 -1.26002e-09 -6.86013e-10 -1.66429e-10 -2.22167 -0.733487 0.20892 -2.03217e-16 0.0 -3.88251e-19 -6.93803 -18.3441 -1.70697 -1.15452 59.6284 1.11713 0.489429 16.9863 -8.63757 2.03217e-16 0.0 3.88251e-19 -2.07473 -36.8614 11.3423 0.352455 38.3626 -0.0281619 1.78309 -8.80142 7.30001
54.9263 85.0792 3.66286 1.4007 -7.4351 8.1133 -3.36905 -7.1813 2.82935 2.4185 1.86227 0.601548 -13.2043 -4.58239 -4.76336 19.9923 -2.75533 -4.30093 -0.0 0.0 0.0 -0.0 0.0 0.0 1.32528e-13 -1.98796e-14 -1.35074e-13 81.4184 36.3399 -13.2637 -17.4206 -10.077 32.7329 -0.531022 -20.2531 -2.97251 -7.75886e-10 8.1463e-10 3.20918e-12 -1.33995e-09 1.40935e-09 -5.04038e-12 -7.75881e-10 8.14631e-10 3.20282e-12 7.73091 5.47488 0.417314 -7.75889e-10 8.14629e-10 3.21236e-12 2.90554 0.965183 0.102902 -7.7588e-10 8.14629e-10 3.21634e-12 10.2786 0.731801 0.0259123 -7.75891e-10 8.14632e-10 3.22508e-12 2.22167 -0.733487 -0.20892 1.32361e-13 -1.98789e-14 -1.35223e-13 -78.2301 38.3244 0.726611 10.8053 -4.64538 -19.3206 0.00181042 1.21486 -0.170763 -1.18558e-09 -7.85845e-10 -4.07051e-10 -2.04981e-09 -1.35655e-09 -6.99536e-10 -1.1856e-09 -7.85855e-10 -4.07051e-10 -7.73091 5.47488 -0.417314 -1.18558e-09 -7.85861e-10 -4.07054e-10 -2.90554 0.965183 -0.102902 -1.18559e-09 -7.85864e-10 -4.07052e-10 -10.2786 0.731801 -0.0259123 -1.18557e-09 -7.85861e-10 -4.07057e-10 -2.22167 -0.733487 0.20892 -2.03217e-16 0.0 -3.88251e-19 -7.00161 -19.7591 -1.86285 -1.24968 61.0419 1.22471 0.339893 15.5452 -9.60229 2.03217e-16 0.0 3.88251e-19 -2.52072 -36.1016 11.1184 0.34039 38.0103 -0.0328731 1.83338 -9.06131 7.36034
55.0885 85.2525 4.47272 1.3966 -7.2724 7.9781 -3.13823 -7.04786 2.47976 2.40364 1.88546 0.498412 -13.0348 -4.70678 -4.69427 19.6842 -2.46206 -4.25323 -0.0 0.0 0.0 -0.0 0.0 0.0 1.2339e-13 -4.87186e-14 -1.24049e-13 81.292 36.1018 -13.3057 -17.5154 -10.1758 32.9396 -0.532779 -20.2837 -2.97743 -7.73149e-10 6.44573e-10 1.47329e-10 -1.33653e-09 1.11618e-09 2.44096e-10 -7.73144e-10 6.44575e-10 1.47321e-10 7.73091 5.47488 0.417314 -7.73152e-10 6.44572e-10 1.47333e-10 2.90554 0.965183 0.102902 -7.73144e-10 6.44572e-10 1.47336e-10 10.2786 0.731801 0.0259123 -7.73155e-10 6.44575e-10 1.47345e-10 2.22167 -0.733487 -0.20892 1.23231e-13 -4.87186e-14 -1.2418e-13 -77.3843 38.8118 -0.435842 10.8868 -4.69783 -19.4759 0.00125252 0.778511 -0.109443 -8.89264e-10 -7.46892e-10 -5.6758e-10 -1.53827e-09 -1.28979e-09 -9.77547e-10 -8.89277e-10 -7.46901e-10 -5.67578e-10 -7.73091 5.47488 -0.417314 -8.89262e-10 -7.46907e-10 -5.67585e-10 -2.90554 0.965183 -0.102902 -8.89274e-10 -7.46909e-10 -5.67584e-10 -10.2786 0.731801 -0.0259123 -8.89256e-10 -7.46907e-10 -5.67589e-10 -2.22167 -0.733487 0.20892 -2.03217e-16 0.0 -3.88251e-19 -6.78455 -21.0065 -1.99318 -1.32735 62.1657 1.3262 0.123092 14.0878 -10.2329 2.03217e-16 0.0 3.88251e-19 -2.68901 -35.2411 10.9097 0.326996 37.6075 -0.0434091 1.87363 -9.35138 7.34585
55.1268 85.4807 5.2521 0.9338 -7.1488 7.8744 -2.6998 -6.87054 2.12591 2.36166 1.86017 0.393465 -12.811 -4.88514 -4.64328 19.2665 -2.06906 -4.26861 -0.0 0.0 0.0 -0.0 0.0 0.0 9.98816e-14 -7.20846e-14 -1.0444e-13 81.2226 35.8896 -13.4457 -17.6446 -10.3108 33.2241 -0.542238 -20.4542 -3.00471 -6.73749e-10 3.21213e-10 2.84755e-10 -1.1657e-09 5.57113e-10 4.82833e-10 -6.73746e-10 3.21217e-10 2.84746e-10 7.73091 5.47488 0.417314 -6.73751e-10 3.21213e-10 2.84761e-10 2.90554 0.965183 0.102902 -6.73746e-10 3.21213e-10 2.84762e-10 10.2786 0.731801 0.0259123 -6.73755e-10 3.21215e-10 2.84771e-10 2.22167 -0.733487 -0.20892 9.9742e-14 -7.20855e-14 -1.04555e-13 -76.4839 39.3081 -1.61228 10.9526 -4.74058 -19.6008 0.000657718 0.442693 -0.062239 -4.33494e-10 -6.22498e-10 -6.94009e-10 -7.50983e-10 -1.0755e-09 -1.1968e-09 -4.33504e-10 -6.22504e-10 -6.94003e-10 -7.73091 5.47488 -0.417314 -4.3349e-10 -6.22509e-10 -6.94016e-10 -2.90554 0.965183 -0.102902 -4.33502e-10 -6.22512e-10 -6.94015e-10 -10.2786 0.731801 -0.0259123 -4.33486e-10 -6.22509e-10 -6.94023e-10 -2.22167 -0.733487 0.20892 -2.03217e-16 0.0 -3.88251e-19 -6.35918 -22.1272 -2.09996 -1.39 63.0431 1.42372 -0.146313 12.5699 -10.6108 2.03217e-16 0.0 3.88251e-19 -2.6625 -34.3129 10.7101 0.312007 37.1656 -0.0599378 1.90526 -9.65091 7.27883
